<svg version="1.1" id="Layer_1" xmlns="http://www.w3.org/2000/svg" xmlns:xlink="http://www.w3.org/1999/xlink" x="0px" y="0px"
	 viewBox="0 0 283.5 283.5" enable-background="new 0 0 283.5 283.5" xml:space="preserve">
<g opacity="0.8">
	<path  fill="#FFFFFF" d="M188,156.3c0,0-2.3,0.3-3.1,0.3h-38.6v17.5C154.7,173.1,171.6,168.5,188,156.3 M113.9,176.8v-20.2h-69
		C62.3,168.3,82,176.3,113.9,176.8 M89.4,126.9H167c37.7,0,37.7-59-3.2-59H90.5C105.9,87,104.8,118.4,89.4,126.9 M218.6,132.7
		c7.7-3.7,12.5-4.7,17.4-5.3c3.7-0.5,19.1,0,19.1,0v29.7c-29.7,0.5-31.3,23.3-22.3,40.9c14.3,28.1-2.1,64.8-38.2,64.8H28.3v-32.9
		c0,0,139.7-0.5,154.5,0c16.5,0.5,19.6-13.3,17.5-21.8c-2.1-8.5-5.3-21.8-5.3-21.8c-48.8,27.6-122.7,27.1-166.8-5.3v-54.2
		c0,0,11.2-0.1,15.4,0c40.9,0.5,36.6-60-1.1-58.4H28.3l0.5-29.7h90.8v-18h25.5v18.1c0,0,10.6-0.2,21.2,0c63.7,1,70.1,67.9,52.2,91.3
		c-1.3,1.7-2,2.7-3.1,4.2C216.8,133.6,217.5,133.3,218.6,132.7"/>
</g>
</svg>
